<svg width="32" height="8" viewBox="0 0 32 8" fill="none" xmlns="http://www.w3.org/2000/svg">
<g clip-path="url(#clip0_1038_364)">
<path d="M9.99304 1.12062C9.93442 0.904004 9.82007 0.706529 9.66139 0.547857C9.50271 0.389186 9.30523 0.274854 9.08861 0.216248C8.29555 0 5.10408 0 5.10408 0C5.10408 0 1.91248 0.00656245 1.11955 0.222811C0.902942 0.281426 0.705472 0.395762 0.546801 0.554433C0.38813 0.713104 0.273794 0.910574 0.215179 1.12718C-0.0246942 2.53623 -0.117756 4.68315 0.221741 6.03576C0.280356 6.25237 0.394692 6.44984 0.553364 6.60851C0.712035 6.76718 0.909505 6.88152 1.12611 6.94013C1.9191 7.15638 5.11064 7.15638 5.11064 7.15638C5.11064 7.15638 8.30218 7.15638 9.09517 6.94013C9.31178 6.88152 9.50925 6.76718 9.66792 6.60851C9.82659 6.44984 9.94092 6.25237 9.99954 6.03576C10.2525 4.62478 10.3305 2.47917 9.99298 1.12068L9.99304 1.12062Z" fill="#FF0000"/>
<path d="M4.08887 5.11171L6.73647 3.57822L4.08887 2.04467V5.11171Z" fill="white"/>
<path d="M30.7023 2.07748C31.0497 2.07748 31.3118 2.14298 31.4953 2.26748C31.6788 2.39204 31.8099 2.58861 31.8885 2.85735C31.9671 3.12604 31.9999 3.49297 31.9999 3.96484V4.73165H30.3157V4.96752L30.3419 5.61633C30.3615 5.76052 30.3944 5.86539 30.4467 5.93089C30.4992 5.99645 30.5843 6.0292 30.6958 6.0292C30.8465 6.0292 30.9514 5.97027 31.0038 5.85233C31.0628 5.73433 31.089 5.53771 31.0955 5.26902L31.9671 5.32146C31.9737 5.36077 31.9737 5.41321 31.9737 5.47871C31.9737 5.89158 31.8623 6.19964 31.6329 6.40276C31.4035 6.60589 31.089 6.71076 30.6761 6.71076C30.178 6.71076 29.8307 6.55351 29.6341 6.24551C29.4375 5.93745 29.3327 5.45246 29.3327 4.80371V4.01072C29.3549 2.89667 29.5509 2.08073 30.7023 2.07748ZM18.5849 2.16267V5.44596C18.5849 5.64258 18.6046 5.78677 18.6504 5.87195C18.7435 6.05414 18.9847 6.00758 19.1158 5.91783C19.1914 5.86669 19.2524 5.79667 19.2927 5.71471V2.16261H20.2954V6.63864H19.5089L19.4237 6.08814H19.4041C19.1879 6.50101 18.8667 6.7107 18.4408 6.7107C17.7851 6.70907 17.6247 6.2367 17.5865 5.75695L17.584 5.72314C17.5793 5.65048 17.5765 5.57771 17.5757 5.50489V2.16267H18.5849H18.5849ZM23.7557 2.16267V5.44596C23.7557 5.64258 23.7753 5.78677 23.8212 5.87195C23.9143 6.05414 24.1554 6.00758 24.2865 5.91783C24.3621 5.86669 24.4231 5.79667 24.4634 5.71471V2.16261H25.4661V6.63864H24.6796L24.5945 6.08814H24.5748C24.3586 6.50101 24.0374 6.7107 23.6115 6.7107C22.9558 6.70907 22.7954 6.2367 22.7572 5.75695L22.7547 5.72314C22.75 5.65048 22.7472 5.57771 22.7464 5.50489V2.16267H23.7557ZM15.6752 2.07748C16.0028 2.07748 16.2715 2.14298 16.4681 2.28061C16.6647 2.41823 16.8155 2.62798 16.9072 2.91629C16.999 3.20466 17.0448 3.59128 17.0448 4.06972V4.71846C17.0448 5.1969 16.999 5.57702 16.9072 5.86533C16.8155 6.15376 16.6713 6.36345 16.4681 6.50107C16.265 6.63214 15.9897 6.7042 15.649 6.7042C15.295 6.71076 15.0198 6.6387 14.8167 6.50764C14.6135 6.37001 14.4693 6.16026 14.3842 5.87195C14.2989 5.58358 14.2596 5.20346 14.2596 4.72509V4.07622C14.2596 3.59778 14.3055 3.2046 14.4038 2.91623C14.5021 2.62135 14.6528 2.41161 14.8625 2.28061C15.0722 2.14948 15.3409 2.07742 15.6752 2.07742V2.07748ZM27.0389 0.281811V2.64104H27.0455C27.1372 2.47067 27.2552 2.33304 27.4191 2.22817C27.5721 2.12528 27.7524 2.07051 27.9367 2.07092C28.1792 2.07092 28.3627 2.13642 28.5004 2.26092C28.638 2.39204 28.7363 2.59517 28.7952 2.87698C28.8524 3.14998 28.8849 3.52754 28.8869 4.00366L28.887 4.05009V4.75784C28.887 5.41971 28.8018 5.91127 28.6445 6.22583C28.4807 6.54039 28.2317 6.6977 27.8909 6.6977C27.7009 6.6977 27.5304 6.65182 27.3732 6.56664C27.2341 6.48558 27.1188 6.36936 27.0388 6.22964L27.0258 6.20614H27.0062L26.9013 6.63214H26.069V0.281873H27.0389V0.281811ZM23.0282 0.511184V1.32374H22.032V6.63864H21.049V1.3238H20.0464V0.511246H23.0282L23.0282 0.511184ZM12.2214 0.511184L12.2221 0.513684C12.2316 0.556246 12.3641 1.1453 12.5099 1.83161L12.5214 1.88599L12.5387 1.96817L12.5504 2.02336L12.5562 2.05105L12.5678 2.10655L12.5736 2.13436L12.5852 2.19005L12.6021 2.27148C12.7005 2.74673 12.7944 3.22335 12.8506 3.5651H12.8769C12.9307 3.25854 13.0089 2.86623 13.0922 2.46567L13.1141 2.36104C13.1251 2.30867 13.1361 2.2563 13.1472 2.20405L13.1644 2.12298C13.2776 1.59217 13.3942 1.06208 13.5142 0.532746L13.516 0.524309L13.519 0.511184H14.5217L13.3617 4.64646V6.63214H12.3722V4.65296H12.3656L11.2188 0.511121L12.2214 0.511184ZM15.6555 2.7721C15.5178 2.7721 15.4261 2.84423 15.3672 2.99498C15.3082 3.14566 15.282 3.37504 15.282 3.69622V5.09209C15.282 5.41977 15.3082 5.66221 15.3606 5.80645C15.413 5.95058 15.5113 6.0227 15.6555 6.0227C15.7931 6.0227 15.8914 5.95058 15.9504 5.80645C16.0094 5.66221 16.0356 5.41977 16.0356 5.09209V3.69616C16.0356 3.37504 16.0093 3.1391 15.9504 2.99491C15.8914 2.84423 15.7931 2.7721 15.6555 2.7721ZM27.2159 2.90323C27.136 2.97698 27.0792 3.06791 27.0454 3.1816L27.0389 3.20466V5.74739C27.1202 5.88502 27.2356 5.97677 27.4387 5.98333C27.5436 5.98333 27.6287 5.94402 27.6943 5.86539C27.7598 5.78677 27.8057 5.65564 27.8319 5.47214C27.8571 5.29602 27.8702 5.0534 27.8712 4.7444V4.12216C27.8712 3.76828 27.8581 3.4996 27.8384 3.30954C27.8122 3.11948 27.7795 2.98185 27.7205 2.90323C27.6064 2.73935 27.3601 2.74135 27.2159 2.90323ZM30.6827 2.75248C30.5713 2.75904 30.4926 2.79179 30.4467 2.85079C30.3944 2.91629 30.3615 3.0146 30.3419 3.15879C30.3226 3.30004 30.316 3.79378 30.3157 3.81353V4.13528H31.0497V3.85153V3.85697C31.0492 3.95616 31.0472 3.79941 31.0427 3.60697L31.042 3.5811C31.0379 3.41197 31.0319 3.22341 31.0235 3.15879C31.0038 3.00804 30.971 2.90317 30.9186 2.84423C30.8662 2.78523 30.7875 2.75248 30.6827 2.75248H30.6827Z" fill="#282828"/>
</g>
<defs>
<clipPath id="clip0_1038_364">
<rect width="32" height="7.24994" fill="white"/>
</clipPath>
</defs>
</svg>
