<svg width="48" height="48" viewBox="0 0 48 48" fill="none" xmlns="http://www.w3.org/2000/svg">
<g clip-path="url(#clip0_1028_323)">
<path d="M37.3366 0H10.4348C4.67181 0 0 4.67181 0 10.4348V37.3366C0 43.0996 4.67181 47.7714 10.4348 47.7714H37.3366C43.0996 47.7714 47.7714 43.0996 47.7714 37.3366V10.4348C47.7714 4.67181 43.0996 0 37.3366 0Z" fill="url(#paint0_linear_1028_323)"/>
<path d="M26.7183 27.9925C26.6718 27.5737 26.5323 27.2712 26.2533 26.9919C25.7303 26.4451 24.8119 26.0844 23.7308 26.0844C22.6498 26.0844 21.7315 26.4334 21.2084 26.9919C20.941 27.2828 20.7899 27.5737 20.7434 27.9925C20.6504 28.8069 20.7085 29.505 20.8015 30.6336C20.8945 31.704 21.0689 33.135 21.2897 34.5777C21.4525 35.6132 21.5803 36.1717 21.6966 36.5673C21.8942 37.2188 22.6033 37.7773 23.7308 37.7773C24.8584 37.7773 25.5792 37.2072 25.7651 36.5673C25.8813 36.1717 26.0092 35.6132 26.172 34.5777C26.3929 33.1234 26.5672 31.704 26.6602 30.6336C26.7648 29.505 26.8113 28.8069 26.7183 27.9925Z" fill="white"/>
<path d="M26.5883 22.0585C26.5883 23.6408 25.3097 24.9206 23.7287 24.9206C22.1478 24.9206 20.8691 23.6408 20.8691 22.0585C20.8691 20.4762 22.1478 19.1964 23.7287 19.1964C25.3097 19.1964 26.5883 20.4878 26.5883 22.0585Z" fill="white"/>
<path d="M23.6957 10.7844C17.0233 10.8076 11.5598 16.2294 11.4669 22.9077C11.3971 28.3178 14.8495 32.9485 19.6737 34.6471C19.7899 34.6936 19.9061 34.5889 19.8945 34.4726C19.8364 34.0537 19.7666 33.6349 19.7201 33.2161C19.6969 33.0648 19.6039 32.9485 19.476 32.8786C15.6632 31.2149 13.0012 27.387 13.0477 22.9542C13.1059 17.1369 17.8486 12.4015 23.6492 12.355C29.5892 12.3085 34.4366 17.1253 34.4366 23.0589C34.4366 27.4452 31.7863 31.2149 28.0083 32.8786C27.8688 32.9368 27.7758 33.0648 27.7642 33.2161C27.7061 33.6349 27.648 34.0537 27.5898 34.4726C27.5666 34.6005 27.6945 34.6936 27.8107 34.6471C32.5883 32.9717 36.0175 28.4109 36.0175 23.0589C35.9942 16.2876 30.4727 10.7727 23.6957 10.7844Z" fill="white"/>
<path d="M23.415 14.8563C19.0675 15.0192 15.5802 18.6144 15.5221 22.9657C15.4873 25.8279 16.917 28.3642 19.114 29.8651C19.2186 29.9349 19.3698 29.8534 19.3698 29.7255C19.3349 29.2252 19.3349 28.783 19.3581 28.3177C19.3698 28.1664 19.3117 28.0268 19.1954 27.9221C17.8586 26.6656 17.0449 24.8738 17.0914 22.8959C17.1844 19.4055 19.9858 16.5666 23.4732 16.427C27.2627 16.2758 30.3781 19.3241 30.3781 23.0704C30.3781 24.9785 29.5644 26.7005 28.274 27.9221C28.1694 28.0268 28.1113 28.1664 28.1113 28.3177C28.1345 28.7714 28.1229 29.2135 28.0997 29.7138C28.088 29.8418 28.2392 29.9349 28.3554 29.8534C30.5175 28.3758 31.9473 25.8744 31.9473 23.0588C31.959 18.4282 28.088 14.6702 23.415 14.8563Z" fill="white"/>
</g>
<defs>
<linearGradient id="paint0_linear_1028_323" x1="23.8857" y1="0" x2="23.8857" y2="47.7714" gradientUnits="userSpaceOnUse">
<stop stop-color="#F452FF"/>
<stop offset="1" stop-color="#832BC1"/>
</linearGradient>
<clipPath id="clip0_1028_323">
<rect width="48" height="48" fill="white"/>
</clipPath>
</defs>
</svg>
