<svg width="24" height="24" viewBox="0 0 24 24" fill="none" xmlns="http://www.w3.org/2000/svg">
<g clip-path="url(#clip0_354_2642)">
<rect width="24" height="24" rx="2" fill="white"/>
<path d="M0 12V24H12H24V12V-9.53674e-07H12H0V12ZM14.0438 4.88437C14.2875 4.94062 14.8781 5.175 15.3656 5.40937C16.0688 5.74687 16.3781 5.9625 16.9125 6.49687C17.9531 7.54687 18.45 8.55937 18.6563 10.0406C18.7781 10.9406 18.6656 11.25 18.1969 11.25C17.8125 11.25 17.7281 11.0906 17.625 10.2562C17.4844 9.04687 17.1188 8.23125 16.3219 7.36875C15.4969 6.47812 14.4375 5.9625 13.1344 5.8125C12.4125 5.7375 12.1875 5.59687 12.1875 5.24062C12.1875 4.8 13.0031 4.64062 14.0438 4.88437ZM13.7906 6.61875C15.3094 7.06875 16.35 8.0625 16.7906 9.47812C17.1188 10.5281 16.9781 11.25 16.4438 11.25C16.1531 11.25 15.975 10.9406 15.9094 10.3406C15.75 8.90625 14.5219 7.69687 13.05 7.5375C12.4688 7.47187 12.1875 7.29375 12.1875 7.00312C12.1875 6.47812 12.8156 6.32812 13.7906 6.61875ZM12.4406 10.5281C14.925 13.0031 15.1875 13.3031 15.1875 13.575C15.1875 13.9875 14.8313 14.3437 14.4188 14.3437C14.1469 14.3437 13.8469 14.0812 11.3719 11.5969C8.9625 9.1875 8.625 8.82187 8.625 8.56875C8.625 8.15625 9 7.78125 9.39375 7.78125C9.66563 7.78125 9.96563 8.04375 12.4406 10.5281ZM13.8844 8.4C14.3625 8.63437 14.9531 9.24375 15.1406 9.69375C15.2063 9.85312 15.2906 10.1812 15.3281 10.425C15.3844 10.7906 15.3656 10.8844 15.1969 11.0531C14.7844 11.4656 14.4188 11.2406 14.25 10.4719C14.1938 10.2094 14.0719 9.89062 13.9781 9.77812C13.7438 9.49687 13.2094 9.1875 12.9656 9.1875C12.4406 9.1875 12.1031 8.84062 12.2344 8.42812C12.3656 8.025 13.0969 8.00625 13.8844 8.4ZM10.8469 12.1125C12.1031 13.3687 13.125 14.4187 13.125 14.4562C13.125 14.4937 12.9469 14.5687 12.7313 14.625C11.85 14.85 10.9969 15.2437 10.1906 15.7781L9.35625 16.3406L7.9875 14.9719L6.62813 13.6125L6.90938 13.2469C7.5375 12.4312 8.11875 11.25 8.34375 10.3312C8.4 10.0687 8.48438 9.84375 8.5125 9.84375C8.55 9.84375 9.6 10.8656 10.8469 12.1125ZM8.09063 17.5781C6.825 18.8719 6.60938 19.0312 6.12188 19.0312C5.71875 19.0312 5.6625 18.9937 4.95 18.3C4.15313 17.5312 3.9375 17.2219 3.9375 16.8281C3.9375 16.4344 4.0875 16.2375 5.1375 15.1594L6.14063 14.1562L7.48125 15.4969L8.8125 16.8281L8.09063 17.5781ZM10.4531 18.9281C10.9219 19.4156 11.0063 19.5469 11.0063 19.8375C11.0063 20.1 10.9406 20.2312 10.7438 20.4C10.2469 20.8312 10.1344 20.7656 8.30625 19.0219L8.025 18.7594L8.54063 18.2156L9.04688 17.6625L9.46875 18.0094C9.70313 18.2062 10.1438 18.6187 10.4531 18.9281Z" fill="#B40404"/>
<path d="M6.18759 16.2844C5.89697 16.5375 5.81259 16.6875 5.83134 16.8656C5.87822 17.2594 6.23447 17.2406 6.66572 16.8188C7.04072 16.4531 7.11572 16.2469 6.91884 16.05C6.74072 15.8719 6.59072 15.9188 6.18759 16.2844Z" fill="#B40404"/>
</g>
<defs>
<clipPath id="clip0_354_2642">
<rect width="24" height="24" rx="2" fill="white"/>
</clipPath>
</defs>
</svg>
