<svg width="31" height="10" viewBox="0 0 31 10" fill="none" xmlns="http://www.w3.org/2000/svg">
<g clip-path="url(#clip0_1036_359)">
<path d="M4.64883 0.0074501C2.08141 0.0074501 0 2.0888 0 4.65623C0 7.22376 2.08141 9.30495 4.64883 9.30495C7.21653 9.30495 9.29772 7.22376 9.29772 4.65623C9.29772 2.08897 7.21653 0.00767215 4.64878 0.00767215L4.64883 0.0074501ZM6.78076 6.71232C6.76092 6.74483 6.73486 6.7731 6.70408 6.79553C6.6733 6.81795 6.63841 6.83409 6.60138 6.84301C6.56436 6.85193 6.52594 6.85346 6.48833 6.84751C6.45071 6.84157 6.41464 6.82826 6.38217 6.80836C5.29067 6.14165 3.91661 5.99065 2.29841 6.36037C2.22348 6.37741 2.14485 6.364 2.0798 6.32309C2.01475 6.28218 1.96861 6.21712 1.95151 6.1422C1.94299 6.10511 1.94187 6.0667 1.94822 6.02917C1.95457 5.99164 1.96826 5.95574 1.9885 5.92351C2.00875 5.89128 2.03515 5.86336 2.0662 5.84135C2.09725 5.81934 2.13234 5.80367 2.16945 5.79524C3.94032 5.39066 5.45932 5.56486 6.68472 6.31374C6.82128 6.39756 6.86458 6.57576 6.78076 6.71232ZM7.34976 5.44651C7.24484 5.61705 7.02168 5.67089 6.85126 5.56597C5.60166 4.7979 3.69684 4.57545 2.2188 5.02411C2.02712 5.08201 1.82466 4.97398 1.76648 4.78263C1.73872 4.69063 1.74858 4.59138 1.79389 4.50664C1.8392 4.4219 1.91626 4.35859 2.00819 4.33059C3.6965 3.81831 5.7954 4.06646 7.23041 4.94828C7.40084 5.0532 7.45468 5.27631 7.34976 5.44651ZM7.39862 4.12841C5.90032 3.23848 3.42832 3.15665 1.9978 3.59082C1.76809 3.66049 1.52517 3.53081 1.45555 3.3011C1.42208 3.19073 1.43381 3.07159 1.48816 2.96988C1.54251 2.86816 1.63503 2.79219 1.74539 2.75868C3.38752 2.26017 6.11737 2.35649 7.84239 3.38054C7.89155 3.40962 7.93449 3.44812 7.96876 3.49382C8.00302 3.53953 8.02793 3.59154 8.04206 3.64689C8.05619 3.70224 8.05926 3.75983 8.0511 3.81636C8.04294 3.8729 8.0237 3.92727 7.99449 3.97636C7.87236 4.18298 7.60479 4.25109 7.39884 4.12841H7.39862ZM12.6479 4.29894C11.8452 4.10753 11.7025 3.97319 11.7025 3.69091C11.7025 3.42422 11.9535 3.24475 12.3271 3.24475C12.689 3.24475 13.0476 3.38104 13.424 3.6616C13.4351 3.67009 13.4495 3.67348 13.4634 3.67126C13.4704 3.67026 13.4771 3.66784 13.4831 3.66415C13.4891 3.66047 13.4943 3.65559 13.4984 3.64983L13.8903 3.09736C13.8981 3.08641 13.9013 3.07292 13.8995 3.05964C13.8976 3.04635 13.8908 3.03428 13.8803 3.02586C13.4323 2.66653 12.9283 2.49183 12.3387 2.49183C11.4722 2.49183 10.8665 3.01193 10.8665 3.75608C10.8665 4.55408 11.3889 4.83664 12.2915 5.05475C13.0593 5.23167 13.1892 5.37989 13.1892 5.6448C13.1892 5.93847 12.9272 6.12111 12.5053 6.12111C12.0367 6.12111 11.6542 5.96289 11.2268 5.59318C11.2161 5.58416 11.2024 5.57959 11.1885 5.58041C11.1741 5.58152 11.1613 5.58818 11.1524 5.59873L10.7127 6.12166C10.6944 6.14387 10.6966 6.17606 10.7177 6.19494C11.2151 6.63904 11.8269 6.87331 12.4875 6.87331C13.4212 6.87331 14.0247 6.36314 14.0247 5.57319C14.0263 4.90665 13.6272 4.53748 12.6496 4.29967L12.6479 4.29894ZM16.1375 3.50733C15.7328 3.50733 15.4008 3.66676 15.1266 3.99346V3.62574C15.1267 3.61183 15.1212 3.59847 15.1114 3.5886C15.1016 3.57872 15.0883 3.57313 15.0744 3.57306H14.3555C14.3266 3.57306 14.3033 3.5967 14.3033 3.62574V7.71156C14.3033 7.74042 14.3266 7.76429 14.3555 7.76429H15.0744C15.1033 7.76429 15.1266 7.74042 15.1266 7.71156V6.42199C15.4008 6.72897 15.7328 6.87941 16.1375 6.87941C16.8897 6.87941 17.6513 6.30041 17.6513 5.19354C17.6524 4.08644 16.8908 3.50727 16.138 3.50727L16.1375 3.50733ZM16.8153 5.19354C16.8153 5.75694 16.4683 6.15053 15.9709 6.15053C15.4797 6.15053 15.1088 5.73918 15.1088 5.19354C15.1088 4.64784 15.4797 4.2366 15.9709 4.2366C16.46 4.23655 16.8153 4.63896 16.8153 5.19354ZM19.6026 3.50733C18.6339 3.50733 17.875 4.2532 17.875 5.20558C17.875 6.14775 18.6289 6.88552 19.591 6.88552C20.563 6.88552 21.3241 6.1422 21.3241 5.19354C21.3241 4.24809 20.568 3.50744 19.6026 3.50744V3.50733ZM19.6026 6.15608C19.0874 6.15608 18.6989 5.74195 18.6989 5.19326C18.6989 4.64207 19.0741 4.2421 19.591 4.2421C20.1094 4.2421 20.5003 4.65606 20.5003 5.20531C20.5003 5.75638 20.1228 6.15608 19.6026 6.15608ZM23.3925 3.57306H22.6014V2.76445C22.6015 2.75757 22.6001 2.75075 22.5975 2.74438C22.5949 2.73801 22.5911 2.73222 22.5862 2.72733C22.5814 2.72244 22.5756 2.71856 22.5693 2.7159C22.5629 2.71324 22.5561 2.71185 22.5492 2.71183H21.8304C21.8015 2.71183 21.7776 2.73547 21.7776 2.76445V3.57306H21.4323C21.4035 3.57306 21.3801 3.5967 21.3801 3.62574V4.24343C21.3801 4.27241 21.4035 4.29611 21.4323 4.29611H21.7776V5.89461C21.7776 6.54023 22.099 6.86776 22.7335 6.86776C22.9911 6.86776 23.2049 6.81446 23.4064 6.70011C23.423 6.69122 23.433 6.67346 23.433 6.65459V6.06615C23.433 6.04838 23.4236 6.03117 23.408 6.02174C23.4005 6.0169 23.3918 6.01415 23.3828 6.01376C23.3738 6.01337 23.3649 6.01536 23.357 6.01952C23.2187 6.08891 23.0849 6.12111 22.9351 6.12111C22.7047 6.12111 22.6014 6.01619 22.6014 5.78192V4.29639H23.3925C23.4214 4.29639 23.4447 4.27274 23.4447 4.24371V3.62607C23.4449 3.61918 23.4437 3.61231 23.4412 3.60588C23.4387 3.59945 23.435 3.5936 23.4301 3.58868C23.4253 3.58375 23.4195 3.57986 23.4132 3.57723C23.4068 3.5746 23.3999 3.57329 23.393 3.57339L23.3925 3.57306ZM26.1482 3.57622V3.47691C26.1482 3.18474 26.2603 3.05445 26.5112 3.05445C26.6611 3.05445 26.7816 3.08421 26.9165 3.12917C26.9331 3.13439 26.9503 3.13178 26.9636 3.12184C26.9704 3.11697 26.9759 3.11054 26.9797 3.1031C26.9834 3.09567 26.9854 3.08744 26.9853 3.0791V2.47345C26.9854 2.46214 26.9819 2.45109 26.9752 2.44199C26.9684 2.43288 26.9589 2.42621 26.9481 2.42299C26.806 2.38063 26.6239 2.33717 26.3508 2.33717C25.6874 2.33717 25.336 2.71099 25.336 3.41784V3.56995H24.9907C24.9618 3.56995 24.938 3.59359 24.938 3.62257V4.24343C24.938 4.27241 24.9618 4.29611 24.9907 4.29611H25.336V6.76117C25.336 6.79059 25.3599 6.81391 25.3887 6.81391H26.1071C26.1365 6.81391 26.1598 6.79059 26.1598 6.76117V4.29628H26.831L27.8591 6.76117C27.7425 7.01986 27.6276 7.07149 27.471 7.07149C27.3445 7.07149 27.2107 7.03374 27.0747 6.9588C27.0618 6.95229 27.0469 6.9509 27.033 6.95491C27.0192 6.95991 27.0075 6.9699 27.0019 6.98322L26.7582 7.51781C26.7466 7.54335 26.7566 7.57277 26.781 7.5861C27.0353 7.72377 27.2645 7.78261 27.5482 7.78261C28.0789 7.78261 28.3726 7.53502 28.6307 6.86998L29.8775 3.64816C29.8808 3.6402 29.882 3.63155 29.881 3.623C29.88 3.61446 29.8769 3.60629 29.872 3.59926C29.8673 3.59222 29.8609 3.58644 29.8535 3.58245C29.846 3.57846 29.8377 3.57638 29.8292 3.57639H29.0809C29.0582 3.57639 29.0382 3.59065 29.031 3.61169L28.2643 5.80079L27.425 3.61025C27.4212 3.60032 27.4145 3.59177 27.4058 3.58572C27.3971 3.57967 27.3867 3.57642 27.3761 3.57639H26.1482V3.57622ZM24.5505 3.57306H23.8316C23.8027 3.57306 23.7789 3.5967 23.7789 3.62574V6.76117C23.7789 6.79059 23.8027 6.81391 23.8316 6.81391H24.5505C24.5794 6.81391 24.6032 6.79059 24.6032 6.76117V3.62596C24.6032 3.61903 24.6019 3.61217 24.5992 3.60577C24.5966 3.59937 24.5927 3.59355 24.5878 3.58865C24.5829 3.58376 24.5771 3.57988 24.5707 3.57724C24.5643 3.5746 24.5574 3.57326 24.5505 3.57328V3.57306ZM24.1952 2.14531C23.9104 2.14531 23.6795 2.3758 23.6795 2.66053C23.6795 2.94542 23.9104 3.17619 24.1952 3.17619C24.48 3.17619 24.7104 2.94542 24.7104 2.66053C24.7104 2.37586 24.4794 2.14531 24.1952 2.14531ZM30.4915 4.58123C30.2073 4.58123 29.9858 4.35279 29.9858 4.07539C29.9858 3.79799 30.2101 3.56695 30.4943 3.56695C30.7785 3.56695 31 3.79533 31 4.07251C31 4.3499 30.7757 4.58123 30.4915 4.58123ZM30.4943 3.61724C30.235 3.61724 30.0391 3.8232 30.0391 4.07539C30.0391 4.32748 30.2339 4.53066 30.4915 4.53066C30.7507 4.53066 30.9467 4.32487 30.9467 4.07251C30.9467 3.82042 30.7519 3.61724 30.4943 3.61724ZM30.6064 4.12452L30.7496 4.32481H30.6286L30.4998 4.14106H30.3894V4.32481H30.2883V3.79389H30.5248C30.6486 3.79389 30.7297 3.857 30.7297 3.96326C30.7302 4.0503 30.6797 4.10348 30.607 4.12452H30.6064ZM30.5209 3.88498H30.3894V4.05291H30.5209C30.5864 4.05291 30.6258 4.02077 30.6258 3.96886C30.6258 3.91424 30.5864 3.88498 30.5209 3.88498Z" fill="#1ED760"/>
</g>
<defs>
<clipPath id="clip0_1036_359">
<rect width="31" height="9.3124" fill="white"/>
</clipPath>
</defs>
</svg>
